# xmcd CD database file
#
# Track frame offsets:
#	150
#	15093
#	26395
#	41284
#	55564
#	66008
#	82881
#
# Disc length: 1280 seconds
#
# Revision: 0
# Processed by: cddbd v1.5.2PL0 Copyright (c) Steve Scherf et al.
# Submitted via: CDex 1.70beta2
#
DISCID=3a04fe07
DTITLE=compilation - 1936-1944- batteurs etoiles des big bands swing
DYEAR=2010
DGENRE=Jazz
TTITLE0=Benny Goodman (Gene Krupa) - Swingtime in the Rockies
TTITLE1=Chick Webb - Clap Hands! Here Comes Charley!
TTITLE2=Tommy Dorsey (Dave Tough) - Satan Takes a Holiday
TTITLE3=Jimmie Lunceford (Jimmy Crawford) - 'Tain't What You Do (It's the Way that You do it
TTITLE4=Artie Shaw (Buddy Rich) - Traffic Jam
TTITLE5=Duke Ellington (Sonny Greer) - Harlem Airshaft
TTITLE6=Count Basie (Jo Jones - Avenue C
EXTD=YEAR: 2010
EXTT0=
EXTT1=
EXTT2=
EXTT3=
EXTT4=
EXTT5=
EXTT6=
PLAYORDER=
